<?xml version="1.0" encoding="utf-8"?>
<!-- Generator: Adobe Illustrator 23.0.0, SVG Export Plug-In . SVG Version: 6.00 Build 0)  -->
<svg version="1.1" id="Layer_1" xmlns="http://www.w3.org/2000/svg" xmlns:xlink="http://www.w3.org/1999/xlink" x="0px" y="0px"
	 viewBox="0 0 114 30" style="enable-background:new 0 0 114 30;" xml:space="preserve">
<style type="text/css">
	.st0{fill:#00B0B9;}
	.st1{fill:#002A3A;}
	.st2{display:none;fill:#3FC1C9;}
	.st3{display:none;fill:#FFFFFF;}
	.st4{fill:#364F6B;}
</style>
<path class="st0" d="M20.3-0.9 M20.3,28.6 M29.6,14.8 M29.7,13.9 M0,14.8 M7.9,12.1"/>
<path class="st1" d="M52.2,10.9c-0.2,0-0.4,0.2-0.4,0.4V27c0,0.2,0.2,0.4,0.4,0.4h1.9c0.2,0,0.4-0.2,0.4-0.4V11.3
	c0-0.2-0.2-0.4-0.4-0.4C54.1,10.9,52.2,10.9,52.2,10.9z M53.2,4.3c-1,0-1.8,0.8-1.8,1.8s0.8,1.8,1.8,1.8S55,7.1,55,6.1
	S54.2,4.3,53.2,4.3z M92.5,10.9c-0.2,0-0.4,0.2-0.4,0.4V27c0,0.2,0.2,0.4,0.4,0.4h1.9c0.2,0,0.4-0.2,0.4-0.4V11.3
	c0-0.2-0.2-0.4-0.4-0.4C94.4,10.9,92.5,10.9,92.5,10.9z M93.4,4.3c-1,0-1.8,0.8-1.8,1.8s0.8,1.8,1.8,1.8s1.8-0.8,1.8-1.8
	S94.4,4.3,93.4,4.3z M112.4,25.9c0.1-0.1,0.1-0.2,0.1-0.3v-0.1c0,0,0-0.1-0.1-0.1c0,0-0.1-0.1-0.2-0.1h-0.7v1.4h0.2v-0.5h0.3
	l0.4,0.5h0.2l-0.5-0.6C112.3,26.1,112.4,26,112.4,25.9z M111.7,26v-0.5h0.4c0.1,0,0.2,0,0.3,0.1c0.1,0,0.1,0.1,0.1,0.2
	s0,0.2-0.1,0.2l-0.3,0.1h-0.4V26z M112,24.7c-0.7,0-1.3,0.6-1.3,1.3c0,0.7,0.6,1.3,1.3,1.3s1.3-0.6,1.3-1.3
	C113.3,25.3,112.7,24.7,112,24.7z M112,27.2c-0.7,0-1.2-0.5-1.2-1.2s0.5-1.2,1.2-1.2s1.2,0.5,1.2,1.2S112.6,27.2,112,27.2z
	 M67.8,13.5c0.2,0,0.4-0.2,0.4-0.4v-1.9c0-0.2-0.2-0.4-0.4-0.4h-4v-6c0-0.2-0.2-0.4-0.4-0.4h-1.9c-0.2,0-0.4,0.2-0.4,0.4v6h-2
	c-0.2,0-0.4,0.2-0.4,0.4v1.9c0,0.2,0.2,0.4,0.4,0.4h2v9.1c0,2.8,1.9,4.6,4.6,4.6h2c0.2,0,0.4-0.2,0.4-0.4v-1.9
	c0-0.2-0.2-0.4-0.4-0.4H66c-1.3,0-2.2-0.9-2.2-2.3v-8.8L67.8,13.5L67.8,13.5z M107.6,13.5c0.2,0,0.4-0.2,0.4-0.4v-1.9
	c0-0.2-0.2-0.4-0.4-0.4h-4v-6c0-0.2-0.2-0.4-0.4-0.4h-1.9c-0.2,0-0.4,0.2-0.4,0.4v6h-2c-0.2,0-0.4,0.2-0.4,0.4v1.9
	c0,0.2,0.2,0.4,0.4,0.4h2v9.1c0,2.8,1.9,4.6,4.6,4.6h2c0.2,0,0.4-0.2,0.4-0.4v-1.9c0-0.2-0.2-0.4-0.4-0.4h-1.8
	c-1.3,0-2.2-0.9-2.2-2.3v-8.8L107.6,13.5L107.6,13.5z M40.3,13.5v13.4c0,0.2,0.2,0.4,0.4,0.4h1.9c0.2,0,0.4-0.2,0.4-0.4V13.5h4.4
	c0.2,0,0.4-0.2,0.4-0.4v-1.9c0-0.2-0.2-0.4-0.4-0.4H43V7.3c0-1.4,1-2.4,2.2-2.4h2.2c0.2,0,0.4-0.2,0.4-0.4V2.6
	c0-0.2-0.2-0.4-0.4-0.4h-2.1c-2.8,0-5,2.3-5,5v3.6h-2c-0.2,0-0.4,0.2-0.4,0.4v1.9c0,0.2,0.2,0.4,0.4,0.4
	C38.3,13.5,40.3,13.5,40.3,13.5z M86.1,12.8c-1.5-1.6-3.6-2.5-5.8-2.5c-2.1,0-4.2,0.9-5.5,2.2v-10c0-0.2-0.2-0.4-0.4-0.4h-1.9
	c-0.2,0-0.4,0.2-0.4,0.4V19c0,6.1,4.1,8.8,8.1,8.8s8.1-2.7,8.1-8.8C88.4,16.6,87.6,14.4,86.1,12.8z M80.3,25.3c-4,0-5.5-3.2-5.5-6.2
	c0-3.7,2.2-6.1,5.5-6.1s5.5,2.5,5.5,6.1C85.7,22.1,84.3,25.3,80.3,25.3z"/>
<g>
	<g id="Smart_Watch41_1_">
	</g>
	<g id="Smart_Watch40_1_">
	</g>
	<g id="Smart_Watch39_1_">
	</g>
	<g id="Smart_Watch38_1_">
	</g>
	<g id="Smart_Watch37_1_">
	</g>
	<g id="Smart_Watch36_1_">
	</g>
	<g id="Smart_Watch35_1_">
	</g>
	<g id="Smart_Watch34_1_">
	</g>
	<g id="Smart_Watch33_1_">
	</g>
	<g id="Smart_Watch32_1_">
	</g>
	<g id="Smart_Watch31_1_">
	</g>
	<g id="Smart_Watch30_1_">
	</g>
	<g id="Smart_Watch29_1_">
	</g>
	<g id="Smart_Watch28_1_">
	</g>
	<g id="Smart_Watch27_1_">
	</g>
	<g id="Smart_Watch26_1_">
	</g>
	<g id="Smart_Watch25_1_">
	</g>
	<g id="Smart_Watch24_1_">
	</g>
	<g id="Smart_Watch23_1_">
	</g>
	<g id="Smart_Watch22_1_">
	</g>
	<g id="Smart_Watch21_1_">
	</g>
	<g id="Smart_Watch20_1_">
	</g>
	<g id="Smart_Watch19_1_">
	</g>
	<g id="Smart_Watch18_1_">
	</g>
	<g id="Smart_Watch17_1_">
	</g>
	<g id="Smart_Watch16_1_">
	</g>
	<g id="Smart_Watch15_1_">
	</g>
	<g id="Smart_Watch14_1_">
	</g>
	<g id="Smart_Watch13_1_">
	</g>
	<g id="Smart_Watch12_1_">
	</g>
	<g id="Smart_Watch11_1_">
	</g>
	<g id="Smart_Watch10_1_">
	</g>
	<g id="Smart_Watch09_1_">
	</g>
	<g id="Smart_Watch08_1_">
	</g>
	<g id="Smart_Watch07_1_">
	</g>
	<g id="Smart_Watch06_1_">
	</g>
	<g id="Smart_Watch05_1_">
	</g>
	<g id="Smart_Watch04_1_">
	</g>
	<g id="Smart_Watch03_1_">
	</g>
	<g id="Smart_Watch02_1_">
		<path class="st2" d="M29.9,13.4v4c0,0.5-0.5,1-1,1h-1v4c0,1.6-1.4,3-3,3h-1.2l-0.8,4.2c-0.1,0.5-0.5,0.8-1,0.8h-8
			c-0.5,0-0.9-0.3-1-0.8l-0.8-4.2h-1.2c-1.7,0-3-1.4-3-3v-14c0-1.6,1.3-3,3-3h1.2l0.8-4.2c0.1-0.5,0.5-0.8,1-0.8h8
			c0.5,0,0.9,0.3,1,0.8l0.8,4.2h1.2c1.6,0,3,1.3,3,3v4h1C29.4,12.4,29.9,12.8,29.9,13.4z"/>
		<g>
			<polygon class="st3" points="14.5,28.4 21.2,28.4 21.9,25.3 13.9,25.3 			"/>
			<polygon class="st3" points="21.2,2.3 14.5,2.3 13.9,5.4 21.9,5.4 			"/>
		</g>
		<path class="st4" d="M28.9,12.4h-1v-4c0-1.6-1.4-3-3-3h-1.2l-0.8-4.2c-0.1-0.5-0.5-0.8-1-0.8h-8c-0.5,0-0.9,0.3-1,0.8l-0.8,4.2
			h-1.2c-1.7,0-3,1.3-3,3v14c0,1.6,1.3,3,3,3h1.2l0.8,4.2c0.1,0.5,0.5,0.8,1,0.8h8c0.5,0,0.9-0.3,1-0.8l0.8-4.2h1.2c1.6,0,3-1.4,3-3
			v-4h1c0.5,0,1-0.5,1-1v-4C29.9,12.8,29.4,12.4,28.9,12.4z M14.7,2.4h6.4l0.6,3h-7.6L14.7,2.4z M21.1,28.4h-6.4l-0.6-3h7.6
			L21.1,28.4z M25.9,22.4c0,0.5-0.5,1-1,1h-14c-0.6,0-1-0.5-1-1v-14c0-0.5,0.4-1,1-1h14c0.5,0,1,0.4,1,1V22.4z"/>
	</g>
</g>
</svg>
